<svg xmlns="http://www.w3.org/2000/svg" width="475" height="75" xml:space="preserve">
  <rect width="100%" height="100%" fill="none"/>
  <g class="currentLayer">
    <path vector-effect="non-scaling-stroke" d="m32.7900005 34.3908274 9.8142156-5.3069472v9.3780288l-9.8142156 5.183172zm10.96-5.91 9.8142156-5.3069472v9.3780288l-9.8142156 5.183172zm10.81-5.75 9.8142156-5.3069472v9.3780288l-9.8142156 5.183172z" fill="#eddcba"/>
    <path vector-effect="non-scaling-stroke" d="m31.5742161 34.3708274-9.8142156-5.3069472v9.3780288l9.8142156 5.183172zm-10.95-5.9-9.8142156-5.3069472v9.3780288l9.8142156 5.183172zm-10.81-5.75L5e-7 17.4138802v9.3780288l9.8142156 5.183172zm12.489386 5.7265848 9.8147016-5.2874136 10.0323108 5.2874136-10.0323108 5.1615504zm11.13-5.83 9.8147016-5.2874136 10.0323108 5.2874136-10.0323108 5.1615504zm10.77-5.93 9.8147016-5.2874136 10.0323108 5.2874136-10.0323108 5.1615504zm-32.84 5.93 9.8147016-5.2874136 10.0323108 5.2874136-10.0323108 5.1615504zm-10.58-5.93 9.8147016-5.2874136 10.0323108 5.2874136-10.0323108 5.1615504zm21.52 0 9.8147016-5.2874136 10.0323108 5.2874136-10.0323108 5.1615504zm11.13-5.71 9.8147016-5.2874136 10.0323108 5.2874136-10.0323108 5.1615504zm-21.7 0 9.8147016-5.2874136 10.0323108 5.2874136-10.0323108 5.1615504zm10.8-5.69 9.8147016-5.2874136 10.0323108 5.2874136-10.0323108 5.1615504zM9.8142161 43.6408274 5e-7 38.3338802v9.3780288l9.8142156 5.183172zm-9.570614-5.6734152 9.8147016-5.2874136 10.0323108 5.2874136-10.0323108 5.1615504zm20.380614 11.4234152-9.8142156-5.3069472v9.3780288l9.8142156 5.183172zm10.95 5.91-9.8142156-5.3069472v9.3780288l9.8142156 5.183172zm-20.570614-11.4034152 9.8147016-5.2874136 10.0323108 5.2874136-10.0323108 5.1615504zm11.3 5.65 9.8147016-5.2874136 10.0323108 5.2874136-10.0323108 5.1615504z" stroke-linecap="round" stroke-width=".3" fill="none" stroke="#eddcba"/>
    <path vector-effect="non-scaling-stroke" d="m32.7900005 55.3108274 9.8142156-5.3069472v9.3780288l-9.8142156 5.183172zm10.96-5.9 9.8142156-5.3069472v9.3780288l-9.8142156 5.183172zm10.81-5.76 9.8142156-5.3069472v9.3780288l-9.8142156 5.183172z" fill="#eddcba"/>
    <path vector-effect="non-scaling-stroke" d="m44.2036021 37.9674122 9.8147016-5.2874136 10.0323108 5.2874136-10.0323108 5.1615504zm-10.95 5.75 9.8147016-5.2874136 10.0323108 5.2874136-10.0323108 5.1615504zM9.8542161 54.0308274.0400005 48.7238802v9.3780288l9.8142156 5.183172zm10.81 5.75-9.8142156-5.3069472v9.3780288l9.8142156 5.183172zm10.95 5.9-9.8142156-5.3069472v9.3780288l9.8142156 5.183172z" stroke-linecap="round" stroke-width=".3" fill="none" stroke="#eddcba"/>
    <path vector-effect="non-scaling-stroke" d="m32.8300005 65.6908274 9.8142156-5.3069472v9.3780288l-9.8142156 5.183172zm10.96-5.9 9.8142156-5.3069472v9.3780288l-9.8142156 5.183172zm10.81-5.75 9.8142156-5.3069472v9.3780288l-9.8142156 5.183172zm56.62336025 5.89666851-3.53105469-10.48828125H89.30285294l-3.49609375 10.48828125H74.65422013l18.94882812-50.903125h9.71914063l19.05371093 50.903125h-11.15253906zm-12.76074219-38.0375-6.32792968 19.05371094h12.72578125L98.46261856 21.8999959zm26.53535157 19.26347656v-.41953125q0-8.70527343 4.14287109-14.01933593 4.1428711-5.3140625 11.17001953-5.3140625 6.22304688 0 9.68417969 4.26523437l.41953125-3.56601562h9.15976562v36.56914062q0 4.96445313-2.25498047 8.63535156-2.25498046 3.67089844-6.34541015 5.59375-4.09042969 1.92285157-9.57929688 1.92285157-4.16035156 0-8.1109375-1.66064454-3.95058593-1.66064453-5.9783203-4.28271484l4.475-6.153125q3.77578124 4.23027344 9.15976562 4.23027344 4.0205078 0 6.2580078-2.15009766 2.2375-2.15009765 2.2375-6.1006836v-2.02773437q-3.49609374 3.95058594-9.19472655 3.95058594-6.81738282 0-11.03017579-5.33154297-4.21279296-5.33154297-4.21279296-14.14169922zm10.10371093.31464844q0 5.13925781 2.06269532 8.0584961 2.0626953 2.91923828 5.66367187 2.91923828 4.61484375 0 6.60761719-3.46113282V33.08749591q-2.02773438-3.46113281-6.53769531-3.46113281-3.6359375 0-5.71611329 2.97167969-2.08017578 2.97167968-2.08017578 8.88007812zm42.89707032-19.36835937V59.9374959H167.8600795V22.10976154h10.13867188zm-10.73300782-9.7890625q0-2.27246094 1.52080078-3.74082032 1.52080079-1.46835937 4.1428711-1.46835937 2.58710937 0 4.12539062 1.46835937 1.53828125 1.46835938 1.53828125 3.74082032 0 2.30742187-1.55576172 3.77578125-1.55576171 1.46835937-4.10791015 1.46835937-2.55214844 0-4.10791016-1.46835937-1.55576172-1.46835938-1.55576172-3.77578125zm29.71679688-6.08320313v53.7h-10.13867188v-53.7h10.13867188zm25.73125 54.39921875q-8.32070313 0-13.54736328-5.10429687-5.22666016-5.10429688-5.22666016-13.5998047v-.97890624q0-5.69863281 2.20253906-10.19111328 2.20253907-4.49248047 6.24052735-6.92226563 4.03798828-2.42978515 9.21220703-2.42978515 7.76132812 0 12.21884765 4.89453125 4.45751954 4.89453125 4.45751954 13.87949218v4.12539063h-24.08808594q.48945312 3.70585937 2.95419922 5.94335937 2.4647461 2.2375 6.24052734 2.2375 5.83847656 0 9.12480469-4.23027343l4.96445312 5.55878906q-2.27246093 3.21640625-6.153125 5.01689453-3.88066406 1.80048828-8.60039062 1.80048828zm-1.15371094-31.0453125q-3.00664062 0-4.87705078 2.02773438-1.87041016 2.02773437-2.39482422 5.80351562h14.05429688v-.80410156q-.06992188-3.35625-1.81796875-5.19169922-1.74804688-1.83544922-4.96445313-1.83544922z" fill="#eddcba"/>
    <path vector-effect="non-scaling-stroke" d="M273.06407272 45.49700182h0q0-2.97167969-2.09765625-4.56240235-2.09765625-1.59072265-7.5515625-3.35625-5.45390625-1.76552734-8.63535156-3.47861328h0q-8.6703125-4.68476562-8.6703125-12.62089843h0q0-4.12539063 2.32490235-7.35927735 2.32490234-3.23388672 6.67753906-5.05185547 4.35263671-1.81796875 9.77158203-1.81796875h0q5.45390625 0 9.71914062 1.97529297 4.26523438 1.97529297 6.62509766 5.57626953 2.35986328 3.60097657 2.35986328 8.18085938h0-10.48828125q0-3.49609375-2.20253906-5.43642578-2.20253907-1.94033203-6.18808594-1.94033203h0q-3.84570313 0-5.97832031 1.62568359-2.13261719 1.6256836-2.13261719 4.28271484h0q0 2.48222657 2.49970703 4.16035157 2.49970703 1.678125 7.35927734 3.14648437h0q8.95 2.69199219 13.0404297 6.67753906 4.09042968 3.98554688 4.09042968 9.92890625h0q0 6.6076172-4.99941406 10.36591797-4.99941407 3.75830078-13.45996094 3.75830078h0q-5.8734375 0-10.69804688-2.15009765-4.82460937-2.15009766-7.35927734-5.89091797t-2.53466797-8.6703125h10.52324219q0 8.42558594 10.06875 8.42558594h0q3.74082031 0 5.83847656-1.52080079 2.09765625-1.52080078 2.09765625-4.2477539zm18.94882813-33.77226563h10.10371093v9.29960938h6.46777344v7.41171875h-6.46777344v18.87890625q0 2.09765625.80410157 3.00664062.80410156.90898438 3.0765625.90898438h0q1.678125 0 2.97167968-.24472656h0v7.6564453q-2.97167968.90898438-6.11816406.90898438h0q-10.628125 0-10.83789062-10.7330078h0V28.43606431h-5.52382813v-7.41171875h5.52382813v-9.29960938zm54.32929687 47.12734375h-10.20859375q-.69921875-1.36347656-1.01386719-3.39121093h0q-3.67089843 4.09042968-9.54433593 4.09042968h0q-5.55878907 0-9.21220703-3.21640625-3.65341797-3.21640625-3.65341797-8.1109375h0q0-6.01328125 4.45751953-9.2296875 4.45751953-3.21640625 12.88310547-3.25136718h4.64980468v-2.16757813q0-2.62207031-1.34599609-4.1953125-1.3459961-1.57324219-4.2477539-1.57324219h0q-2.55214844 0-4.00302735 1.22363282-1.4508789 1.2236328-1.4508789 3.35625h0-10.10371094q0-3.28632813 2.02773437-6.08320313 2.02773438-2.796875 5.73359375-4.38759766 3.70585938-1.59072265 8.32070313-1.59072265h0q6.9921875 0 11.10009766 3.51357422 4.10791015 3.51357422 4.10791015 9.87646484h0v16.39667969q.03496094 5.38398437 1.50332031 8.14589844h0v.59433593zm-18.56425781-7.02714843h0q2.2375 0 4.12539062-.99638672 1.88789063-.99638672 2.796875-2.67451172h0v-6.50273438h-3.77578125q-7.58652343 0-8.07597656 5.24414063h0l-.03496094.59433594q0 1.88789062 1.32851563 3.11152343 1.32851562 1.22363282 3.6359375 1.22363282zm40.5546875-.41953125h0q2.796875 0 4.54492187-1.53828125 1.74804688-1.53828125 1.81796875-4.0904297h9.47441407q-.03496094 3.84570313-2.09765625 7.04462891-2.06269532 3.19892579-5.6461914 4.96445313-3.5834961 1.76552734-7.91865235 1.76552734h0q-8.1109375 0-12.79570313-5.15673828-4.68476562-5.15673828-4.68476562-14.24658203h0v-.66425781q0-8.74023438 4.64980468-13.94941406 4.6498047-5.2091797 12.7607422-5.2091797h0q7.0970703 0 11.37978515 4.03798829 4.28271484 4.03798828 4.35263672 10.75048828h0-9.47441407q-.06992187-2.93671875-1.81796875-4.77216797-1.74804687-1.83544922-4.61484375-1.83544922h0q-3.53105468 0-5.33154296 2.5696289-1.80048829 2.56962892-1.80048829 8.3381836h0v1.04882813q0 5.83847656 1.78300782 8.390625 1.78300781 2.55214844 5.41894531 2.55214844zm45.06464844 7.44667968-9.71914063-15.17304687-3.6359375 3.6359375v11.53710937h-10.10371094v-53.7h10.10371094v29.75175782l1.9578125-2.5171875 9.68417969-11.3623047h12.13144531l-13.66972656 15.76738282 14.85839844 22.06035156h-11.60703125zm35.27558593-10.4533203h0q0-1.8529297-1.83544921-2.9192383-1.83544922-1.06630858-5.89091797-1.90537108h0q-13.49492188-2.83183594-13.49492188-11.4671875h0q0-5.034375 4.17783204-8.40810547 4.17783202-3.37373047 10.92529296-3.37373047h0q7.20195313 0 11.51962891 3.39121094 4.31767578 3.39121093 4.31767578 8.81015625h0-10.10371094q0-2.16757813-1.3984375-3.5834961-1.3984375-1.41591797-4.37011719-1.41591797h0q-2.55214843 0-3.95058593 1.15371094t-1.3984375 2.93671875h0q0 1.678125 1.59072266 2.70947266 1.59072265 1.03134765 5.3665039 1.7830078 3.77578125.75166017 6.36289062 1.69560548h0q8.0060547 2.93671875 8.0060547 10.17363281h0q0 5.17421875-4.44003907 8.37314453-4.44003906 3.19892578-11.4671875 3.19892578h0q-4.7546875 0-8.4430664-1.69560547-3.68837891-1.69560546-5.78603516-4.64980468t-2.09765625-6.3803711h9.57929687q.13984375 2.6919922 1.99277344 4.12539063 1.85292969 1.43339844 4.96445312 1.43339844h0q2.90175782 0 4.38759766-1.10126954 1.48583984-1.10126953 1.48583984-2.88427734z" stroke-linecap="round" stroke-width="1" fill="none" stroke="#eddcba"/>
  </g>
</svg>
