<svg xmlns="http://www.w3.org/2000/svg" xmlns:xlink="http://www.w3.org/1999/xlink" version="1.1" width="458" height="75" xml:space="preserve" style=""><rect id="backgroundrect" width="100%" height="100%" x="0" y="0" fill="none" stroke="none"/>
<desc>Created with Fabric.js 4.6.0</desc>
<g class="currentLayer" style=""><title>Layer 1</title><g class=""><g id="SOyRlNNyoGZg0LoJvH83d" class="">
<path vector-effect="non-scaling-stroke" d="M32.790000506884766,34.390827390820306 L42.60421610688478,29.08388019082031 L42.60421610688478,38.46190899082032 L32.790000506884766,43.645080990820304 z" stroke-linecap="round" stroke-width="0" fill="#ff0000" id="svg_3"/>
</g><g id="lxo89QoQbaQ_-V2UDA8tP" class="">
<path vector-effect="non-scaling-stroke" d="M43.75000050688476,28.48082739082031 L53.56421610688477,23.173880190820313 L53.56421610688477,32.55190899082032 L43.75000050688476,37.73508099082031 z" stroke-linecap="round" stroke-width="0" fill="#ff0000" id="svg_4"/>
</g><g id="TwsYd1oNBVN5-sta0-ycg" class="">
<path vector-effect="non-scaling-stroke" d="M54.56000050688476,22.73082739082031 L64.37421610688477,17.423880190820313 L64.37421610688477,26.801908990820323 L54.56000050688476,31.985080990820308 z" stroke-linecap="round" stroke-width="0" fill="#ff0000" id="svg_5"/>
</g><g id="cF7KdxNTxqmeqgVXxMhz4" class="">
<path vector-effect="non-scaling-stroke" d="M31.574216106884776,34.370827390820324 L21.760000506884765,29.063880190820328 L21.760000506884765,38.44190899082034 L31.574216106884776,43.62508099082032 z" stroke-linecap="round" stroke-width=".3" fill="none" stroke="#ff0000" id="svg_6"/>
</g><g id="cOOmJt8Dgga5yB4iDg29z" class="">
<path vector-effect="non-scaling-stroke" d="M20.624216106884774,28.470827390820318 L10.810000506884762,23.163880190820322 L10.810000506884762,32.54190899082033 L20.624216106884774,37.72508099082032 z" stroke-linecap="round" stroke-width=".3" fill="none" stroke="#ff0000" id="svg_7"/>
</g><g id="NRSaGp_WH-fvB855GVcDU" class="">
<path vector-effect="non-scaling-stroke" d="M9.814216106884771,22.720827390820318 L5.068847670486321e-7,17.413880190820322 L5.068847670486321e-7,26.791908990820332 L9.814216106884771,31.975080990820317 z" stroke-linecap="round" stroke-width=".3" fill="none" stroke="#ff0000" id="svg_8"/>
</g><g id="3Vetazf-7DWHG1srT_vpp" class="">
<path vector-effect="non-scaling-stroke" d="M22.303602106884767,28.44741219082033 L32.11830370688476,23.159998590820322 L42.15061450688475,28.44741219082033 L32.11830370688476,33.60896259082031 z" stroke-linecap="round" stroke-width=".3" fill="none" stroke="#ff0000" id="svg_9"/>
</g><g id="1hfGH652pGUYGUYfREv6R" class="">
<path vector-effect="non-scaling-stroke" d="M33.43360210688476,22.617412190820318 L43.24830370688477,17.32999859082031 L53.280614506884774,22.617412190820318 L43.24830370688477,27.7789625908203 z" stroke-linecap="round" stroke-width=".3" fill="none" stroke="#ff0000" id="svg_10"/>
</g><g id="OjqaM0m8sUXq80GfrjpYM" class="">
<path vector-effect="non-scaling-stroke" d="M44.20360210688477,16.68741219082034 L54.018303706884765,11.399998590820331 L64.05061450688476,16.68741219082034 L54.018303706884765,21.84896259082032 z" stroke-linecap="round" stroke-width=".3" fill="none" stroke="#ff0000" id="svg_11"/>
</g><g id="17pzLKALSBx39xgWrG9Jz" class="">
<path vector-effect="non-scaling-stroke" d="M11.36360210688477,22.617412190820318 L21.178303706884762,17.32999859082031 L31.210614506884752,22.617412190820318 L21.178303706884762,27.7789625908203 z" stroke-linecap="round" stroke-width=".3" fill="none" stroke="#ff0000" id="svg_12"/>
</g><g id="ruphub_SW7cUgYvlNtMTu" class="">
<path vector-effect="non-scaling-stroke" d="M0.7836021068847643,16.68741219082034 L10.598303706884764,11.399998590820331 L20.63061450688477,16.68741219082034 L10.598303706884764,21.84896259082032 z" stroke-linecap="round" stroke-width=".3" fill="none" stroke="#ff0000" id="svg_13"/>
</g><g id="JOssW0cjq_agIuWNS7yQp" class="">
<path vector-effect="non-scaling-stroke" d="M22.303602106884767,16.68741219082034 L32.11830370688476,11.399998590820331 L42.15061450688475,16.68741219082034 L32.11830370688476,21.84896259082032 z" stroke-linecap="round" stroke-width=".3" fill="none" stroke="#ff0000" id="svg_14"/>
</g><g id="bc9DF50FW3wrY64PUGTRA" class="">
<path vector-effect="non-scaling-stroke" d="M33.43360210688476,10.977412190820331 L43.24830370688477,5.689998590820323 L53.280614506884774,10.977412190820331 L43.24830370688477,16.138962590820313 z" stroke-linecap="round" stroke-width=".3" fill="none" stroke="#ff0000" id="svg_15"/>
</g><g id="NSYHwiuNtoiLnpZcUqVWc" class="">
<path vector-effect="non-scaling-stroke" d="M11.733602106884774,10.977412190820331 L21.548303706884766,5.689998590820323 L31.580614506884757,10.977412190820331 L21.548303706884766,16.138962590820313 z" stroke-linecap="round" stroke-width=".3" fill="none" stroke="#ff0000" id="svg_16"/>
</g><g id="ouzHbU0S1RhZ_OkJCcxeJ" class="">
<path vector-effect="non-scaling-stroke" d="M22.533602106884757,5.2874121908203335 L32.348303706884764,-0.000001409179674283223 L42.38061450688477,5.2874121908203335 L32.348303706884764,10.448962590820315 z" stroke-linecap="round" stroke-width=".3" fill="none" stroke="#ff0000" id="svg_17"/>
</g><g id="FuvObeIsyI9g7RK17ejZh" class="">
<path vector-effect="non-scaling-stroke" d="M9.814216106884771,43.640827390820306 L5.068847670486321e-7,38.33388019082031 L5.068847670486321e-7,47.71190899082032 L9.814216106884771,52.895080990820304 z" stroke-linecap="round" stroke-width=".3" fill="none" stroke="#ff0000" id="svg_18"/>
</g><g id="wfDISCc1EGCo4iO1KEPa1" class="">
<path vector-effect="non-scaling-stroke" d="M0.24360210688477224,37.96741219082031 L10.058303706884772,32.679998590820304 L20.090614506884776,37.96741219082031 L10.058303706884772,43.128962590820294 z" stroke-linecap="round" stroke-width=".3" fill="none" stroke="#ff0000" id="svg_19"/>
</g><g id="DDrVAg7nVdy20YtrVrhEG" class="">
<path vector-effect="non-scaling-stroke" d="M20.624216106884774,49.390827390820306 L10.810000506884762,44.08388019082031 L10.810000506884762,53.46190899082032 L20.624216106884774,58.645080990820304 z" stroke-linecap="round" stroke-width=".3" fill="none" stroke="#ff0000" id="svg_20"/>
</g><g id="5-8oQneXqGUvsKozTB0SG" class="">
<path vector-effect="non-scaling-stroke" d="M31.574216106884776,55.3008273908203 L21.760000506884765,49.993880190820306 L21.760000506884765,59.371908990820316 L31.574216106884776,64.5550809908203 z" stroke-linecap="round" stroke-width=".3" fill="none" stroke="#ff0000" id="svg_21"/>
</g><g id="3a5ec--BorSWRIMuSifT9" class="">
<path vector-effect="non-scaling-stroke" d="M11.003602106884756,43.89741219082032 L20.818303706884763,38.60999859082031 L30.850614506884767,43.89741219082032 L20.818303706884763,49.0589625908203 z" stroke-linecap="round" stroke-width=".3" fill="none" stroke="#ff0000" id="svg_22"/>
</g><g id="-trbbe0t7SgAzd2A2Sx6W" class="">
<path vector-effect="non-scaling-stroke" d="M22.303602106884767,49.547412190820324 L32.11830370688476,44.25999859082032 L42.15061450688475,49.547412190820324 L32.11830370688476,54.708962590820306 z" stroke-linecap="round" stroke-width=".3" fill="none" stroke="#ff0000" id="svg_23"/>
</g><g id="NyUrQiUjrhnNdrzvI74xq" class="">
<path vector-effect="non-scaling-stroke" d="M32.790000506884766,55.31082739082032 L42.60421610688478,50.003880190820325 L42.60421610688478,59.381908990820335 L32.790000506884766,64.56508099082032 z" stroke-linecap="round" stroke-width="0" fill="#ff0000" id="svg_24"/>
</g><g id="qnEr3teCwvoVnS3tPDPEl" class="">
<path vector-effect="non-scaling-stroke" d="M43.75000050688476,49.410827390820316 L53.56421610688477,44.10388019082032 L53.56421610688477,53.48190899082033 L43.75000050688476,58.665080990820314 z" stroke-linecap="round" stroke-width="0" fill="#ff0000" id="svg_25"/>
</g><g id="ndDFx7VmZDeVBFMMLZ-pj" class="">
<path vector-effect="non-scaling-stroke" d="M54.56000050688476,43.650827390820325 L64.37421610688477,38.34388019082033 L64.37421610688477,47.72190899082034 L54.56000050688476,52.90508099082032 z" stroke-linecap="round" stroke-width="0" fill="#ff0000" id="svg_26"/>
</g><g id="8cA_H_G3-l9QuFLzyJ6k3" class="">
<path vector-effect="non-scaling-stroke" d="M44.20360210688477,37.96741219082031 L54.018303706884765,32.679998590820304 L64.05061450688476,37.96741219082031 L54.018303706884765,43.128962590820294 z" stroke-linecap="round" stroke-width=".3" fill="none" stroke="#ff0000" id="svg_27"/>
</g><g id="zjMNlXdzC4rlAoDi-QeEC" class="">
<path vector-effect="non-scaling-stroke" d="M33.253602106884756,43.71741219082031 L43.06830370688476,38.429998590820304 L53.10061450688477,43.71741219082031 L43.06830370688476,48.878962590820294 z" stroke-linecap="round" stroke-width=".3" fill="none" stroke="#ff0000" id="svg_28"/>
</g><g id="Yj1mMw5YG7SMYSG9s6lPA" class="">
<path vector-effect="non-scaling-stroke" d="M9.854216106884778,54.03082739082032 L0.0400005068847733,48.723880190820324 L0.0400005068847733,58.101908990820334 L9.854216106884778,63.28508099082032 z" stroke-linecap="round" stroke-width=".3" fill="none" stroke="#ff0000" id="svg_29"/>
</g><g id="oXEcHXoURiQ6NlIehwncK" class="">
<path vector-effect="non-scaling-stroke" d="M20.664216106884766,59.78082739082032 L10.850000506884754,54.473880190820324 L10.850000506884754,63.851908990820334 L20.664216106884766,69.03508099082032 z" stroke-linecap="round" stroke-width=".3" fill="none" stroke="#ff0000" id="svg_30"/>
</g><g id="MydGE3tJpwJHwr-N4Cyq8" class="">
<path vector-effect="non-scaling-stroke" d="M31.61421610688477,65.6808273908203 L21.800000506884757,60.3738801908203 L21.800000506884757,69.75190899082031 L31.61421610688477,74.9350809908203 z" stroke-linecap="round" stroke-width=".3" fill="none" stroke="#ff0000" id="svg_31"/>
</g><g id="vyrXn8I2Rvrh2SzY6555B" class="">
<path vector-effect="non-scaling-stroke" d="M32.83000050688476,65.69082739082032 L42.64421610688477,60.38388019082032 L42.64421610688477,69.76190899082033 L32.83000050688476,74.94508099082032 z" stroke-linecap="round" stroke-width="0" fill="#ff0000" id="svg_32"/>
</g><g id="XNeVpShTFKc6-9v6EmEwv" class="">
<path vector-effect="non-scaling-stroke" d="M43.790000506884766,59.79082739082031 L53.60421610688478,54.483880190820315 L53.60421610688478,63.861908990820325 L43.790000506884766,69.04508099082031 z" stroke-linecap="round" stroke-width="0" fill="#ff0000" id="svg_33"/>
</g><g id="UiEmeXOP-mF3B93es-URX" class="">
<path vector-effect="non-scaling-stroke" d="M54.600000506884754,54.04082739082031 L64.41421610688477,48.733880190820315 L64.41421610688477,58.111908990820325 L54.600000506884754,63.29508099082031 z" stroke-linecap="round" stroke-width="0" fill="#ff0000" id="svg_34"/>
</g></g><g class=""><g id="lDn7NqFXvuz29fyJJbzEf" class="">
<path vector-effect="non-scaling-stroke" d="M111.22336075192618,59.93749591138908 L107.69230606442619,49.44921466138908 L89.30285293942615,49.44921466138908 L85.80675918942615,59.93749591138908 L74.65422012692619,59.93749591138908 L93.60304825192617,9.034370911389033 L103.32218887692619,9.034370911389033 L122.37589981442613,59.93749591138908 L111.22336075192618,59.93749591138908 zM98.46261856442618,21.899995911389055 L92.13468887692619,40.953706848889055 L104.86047012692615,40.953706848889055 L98.46261856442618,21.899995911389055 zM124.99797012692613,41.16347247388899 L124.99797012692613,40.74394122388901 Q124.99797012692613,32.038667786389055 129.14084121888612,26.724605286389078 Q133.2837123144261,21.410542786388987 140.3108607519261,21.410542786388987 L140.3108607519261,21.410542786388987 Q146.53390762692612,21.410542786388987 149.99504043942613,25.675777161389078 L149.99504043942613,25.675777161389078 L150.4145716894261,22.109761536388987 L159.57433731442615,22.109761536388987 L159.57433731442615,58.67890216138903 Q159.57433731442615,63.64335528638901 157.31935684388617,67.31425372388901 Q155.06437637692613,70.98515216138901 150.9739466894261,72.90800372388901 Q146.88351700192612,74.83085528638901 141.39464981442615,74.83085528638901 L141.39464981442615,74.83085528638901 Q137.23429825192613,74.83085528638901 133.2837123144261,73.17021075334901 Q129.33312637692615,71.50956622388901 127.30539200192612,68.88749591138901 L127.30539200192612,68.88749591138901 L131.78039200192615,62.73437091138908 Q135.5561732519261,66.96464434888901 140.94015762692612,66.96464434888901 L140.94015762692612,66.96464434888901 Q144.96066543942612,66.96464434888901 147.19816543942613,64.81454669084906 Q149.43566543942615,62.66444903638899 149.43566543942615,58.71386309888908 L149.43566543942615,58.71386309888908 L149.43566543942615,56.686128723889055 Q145.93957168942615,60.63671466138908 140.24093887692612,60.63671466138908 L140.24093887692612,60.63671466138908 Q133.42355606442612,60.63671466138908 129.21076309388616,55.30517169084908 Q124.99797012692613,49.97362872388908 124.99797012692613,41.16347247388899 L124.99797012692613,41.16347247388899 zM135.10168106442615,41.478120911389055 L135.10168106442615,41.478120911389055 Q135.10168106442615,46.61737872388903 137.1643763769261,49.53661700334908 Q139.2270716894261,52.45585528638901 142.82804825192613,52.45585528638901 L142.82804825192613,52.45585528638901 Q147.4428920019261,52.45585528638901 149.43566543942615,48.994722473889055 L149.43566543942615,48.994722473889055 L149.43566543942615,33.087495911389055 Q147.40793106442612,29.626363098888987 142.8979701269261,29.626363098888987 L142.8979701269261,29.626363098888987 Q139.2620326269261,29.626363098888987 137.18185684388612,32.59804278638899 Q135.10168106442615,35.56972247388899 135.10168106442615,41.478120911389055 zM177.99875137692618,22.109761536388987 L177.99875137692618,59.93749591138908 L167.86007950192612,59.93749591138908 L167.86007950192612,22.109761536388987 L177.99875137692618,22.109761536388987 zM167.26574356442615,12.320699036388987 L167.26574356442615,12.320699036388987 Q167.26574356442615,10.048238098888987 168.78654434388613,8.57987872388901 Q170.30734512692612,7.111519348889033 172.92941543942612,7.111519348889033 L172.92941543942612,7.111519348889033 Q175.51652481442613,7.111519348889033 177.0548060644261,8.57987872388901 Q178.59308731442616,10.048238098888987 178.59308731442616,12.320699036388987 L178.59308731442616,12.320699036388987 Q178.59308731442616,14.628120911389033 177.03732559388618,16.09648028638901 Q175.4815638769261,17.564839661388987 172.92941543942612,17.564839661388987 Q170.3772670019261,17.564839661388987 168.82150528138612,16.09648028638901 Q167.26574356442615,14.628120911389033 167.26574356442615,12.320699036388987 zM196.9825404394261,6.237495911389033 L196.9825404394261,59.93749591138908 L186.8438685644261,59.93749591138908 L186.8438685644261,6.237495911389033 L196.9825404394261,6.237495911389033 zM222.71379043942613,60.63671466138908 L222.71379043942613,60.63671466138908 Q214.3930873144261,60.63671466138908 209.16642715638613,55.53241778638903 Q203.93976700192616,50.42812091138899 203.93976700192616,41.93261309888908 L203.93976700192616,41.93261309888908 L203.93976700192616,40.953706848889055 Q203.93976700192616,35.25507403638903 206.14230606442618,30.7625935658491 Q208.3448451269261,26.270113098889055 212.3828334063861,23.84032794084908 Q216.42082168942613,21.410542786388987 221.59504043942616,21.410542786388987 L221.59504043942616,21.410542786388987 Q229.35636856442613,21.410542786388987 233.81388809388613,26.305074036388987 Q238.27140762692613,31.199605286388987 238.27140762692613,40.18456622388908 L238.27140762692613,40.18456622388908 L238.27140762692613,44.30995684888899 L214.18332168942618,44.30995684888899 Q214.67277481442613,48.01581622388903 217.13752090638616,50.25331622388899 Q219.60226700192618,52.490816223889055 223.3780482519261,52.490816223889055 L223.3780482519261,52.490816223889055 Q229.21652481442618,52.490816223889055 232.50285293942613,48.26054278638901 L232.50285293942613,48.26054278638901 L237.4673060644261,53.81933184888908 Q235.1948451269261,57.035738098889055 231.31418106442618,58.83622637834901 Q227.43351700192613,60.63671466138908 222.71379043942613,60.63671466138908 zM221.5600795019261,29.591402161389055 L221.5600795019261,29.591402161389055 Q218.55343887692618,29.591402161389055 216.68302871888613,31.619136536389078 Q214.8126185644261,33.64687091138899 214.2882045019261,37.42265216138901 L214.2882045019261,37.42265216138901 L228.34250137692618,37.42265216138901 L228.34250137692618,36.61855059888899 Q228.2725795019261,33.262300598889055 226.5245326269261,31.426851378349056 Q224.7764857519261,29.591402161389055 221.5600795019261,29.591402161389055 z" stroke-linecap="round" fill="#ff0000" id="svg_1"/>
</g><g id="jQqxtERMsQBZBzU-vgZ38" class="">
<path vector-effect="non-scaling-stroke" d="M273.06407272220497,45.497001818044964 L273.06407272220497,45.497001818044964 Q273.06407272220497,42.525322130544964 270.96641647220497,40.93459947250494 Q268.86876022220497,39.34387681804492 263.4148539722049,37.5783494725049 Q257.9609477222049,35.81282213054487 254.77950240970483,34.09973619304492 L254.77950240970483,34.09973619304492 Q246.10918990970492,29.414970568044964 246.10918990970492,21.478837755544873 L246.10918990970492,21.478837755544873 Q246.10918990970492,17.353447130544964 248.434092255245,14.119560410004965 Q250.75899459720483,10.885673693044964 255.1116313177448,9.067704943044873 Q259.464268034705,7.249736193044896 264.883213347205,7.249736193044896 L264.883213347205,7.249736193044896 Q270.33711959720483,7.249736193044896 274.6023539722049,9.225029160004965 Q278.867588347205,11.200322130544919 281.2274516302449,14.801298693044942 Q283.587314909705,18.402275255544964 283.587314909705,22.982158068044896 L283.587314909705,22.982158068044896 L273.099033659705,22.982158068044896 Q273.099033659705,19.486064318044896 270.8964945972049,17.545732285004988 Q268.69395553470497,15.605400255544964 264.708408659705,15.605400255544964 L264.708408659705,15.605400255544964 Q260.862705534705,15.605400255544964 258.73008834720497,17.23108384750492 Q256.5974711597049,18.856767443044873 256.5974711597049,21.51379869304492 L256.5974711597049,21.51379869304492 Q256.5974711597049,23.996025255544964 259.097178192745,25.674150255544873 Q261.59688522220483,27.352275255544896 266.456455534705,28.820634630544873 L266.456455534705,28.820634630544873 Q275.40645553470483,31.512626818044964 279.4968852222049,35.49817369304492 Q283.587314909705,39.48372056804487 283.587314909705,45.42707994304487 L283.587314909705,45.42707994304487 Q283.587314909705,52.03469713054494 278.5879008472049,55.79299791000494 Q273.58848678470497,59.55129869304494 265.1279399097049,59.55129869304494 L265.1279399097049,59.55129869304494 Q259.25450240970497,59.55129869304494 254.42989303470483,57.40120103500499 Q249.60528365970492,55.25110338054492 247.0706156927448,51.51028306804494 Q244.53594772220492,47.769462755544964 244.53594772220492,42.83997056804492 L244.53594772220492,42.83997056804492 L255.05918990970497,42.83997056804492 Q255.05918990970497,51.265556505544964 265.1279399097049,51.265556505544964 L265.1279399097049,51.265556505544964 Q268.86876022220497,51.265556505544964 270.96641647220497,49.74475572250492 Q273.06407272220497,48.22395494304487 273.06407272220497,45.497001818044964 zM292.01290084720483,11.724736193044919 L302.116611784705,11.724736193044919 L302.116611784705,21.024345568044964 L308.584385222205,21.024345568044964 L308.584385222205,28.43606431804494 L302.116611784705,28.43606431804494 L302.116611784705,47.31497056804494 Q302.116611784705,49.41262681804494 302.9207133472049,50.32161119304487 Q303.72481490970483,51.23059556804492 305.99727584720483,51.23059556804492 L305.99727584720483,51.23059556804492 Q307.67540084720497,51.23059556804492 308.96895553470483,50.98586900554494 L308.96895553470483,50.98586900554494 L308.96895553470483,58.642314318044896 Q305.99727584720483,59.55129869304494 302.85079147220483,59.55129869304494 L302.85079147220483,59.55129869304494 Q292.2226664722049,59.55129869304494 292.01290084720483,48.818290880544964 L292.01290084720483,48.818290880544964 L292.01290084720483,28.43606431804494 L286.4890727222049,28.43606431804494 L286.4890727222049,21.024345568044964 L292.01290084720483,21.024345568044964 L292.01290084720483,11.724736193044919 zM346.342197722205,58.85207994304494 L336.1336039722049,58.85207994304494 Q335.4343852222049,57.48860338054487 335.11973678470497,55.460869005544964 L335.11973678470497,55.460869005544964 Q331.44883834720497,59.55129869304494 325.57540084720483,59.55129869304494 L325.57540084720483,59.55129869304494 Q320.0166117847049,59.55129869304494 316.3631938177449,56.334892443044964 Q312.7097758472049,53.11848619304487 312.7097758472049,48.22395494304487 L312.7097758472049,48.22395494304487 Q312.7097758472049,42.210673693044896 317.1672953802448,38.99426744304492 Q321.6248149097049,35.77786119304494 330.05040084720497,35.742900255544896 L330.05040084720497,35.742900255544896 L334.7002055347049,35.742900255544896 L334.7002055347049,33.57532213054492 Q334.7002055347049,30.95325181804492 333.35420944274495,29.38000963054492 Q332.008213347205,27.80676744304492 329.1064555347049,27.80676744304492 L329.1064555347049,27.80676744304492 Q326.55430709720497,27.80676744304492 325.1034281927449,29.03040025554492 Q323.65254928470483,30.25403306804492 323.65254928470483,32.386650255544964 L323.65254928470483,32.386650255544964 L313.5488383472049,32.386650255544964 Q313.5488383472049,29.100322130544896 315.576572722205,26.303447130544896 Q317.6043070972049,23.506572130544896 321.31016647220497,21.915849472504988 Q325.016025847205,20.325126818044964 329.6308695972049,20.325126818044964 L329.6308695972049,20.325126818044964 Q336.6230570972049,20.325126818044964 340.730967255245,23.838701035004988 Q344.8388774097049,27.352275255544896 344.8388774097049,33.71516588054487 L344.8388774097049,33.71516588054487 L344.8388774097049,50.11184556804494 Q344.8738383472049,55.495829943044896 346.342197722205,58.257744005544964 L346.342197722205,58.257744005544964 L346.342197722205,58.85207994304494 zM327.77793990970497,51.824931505544896 L327.77793990970497,51.824931505544896 Q330.0154399097049,51.824931505544896 331.9033305347049,50.828544785004965 Q333.79122115970483,49.83215806804492 334.7002055347049,48.154033068044896 L334.7002055347049,48.154033068044896 L334.7002055347049,41.651298693044964 L330.92442428470497,41.651298693044964 Q323.3379008472049,41.651298693044964 322.8484477222049,46.895439318044964 L322.8484477222049,46.895439318044964 L322.8134867847049,47.48977525554494 Q322.8134867847049,49.377665880544896 324.142002409705,50.601298693044896 Q325.4705180347049,51.824931505544896 327.77793990970497,51.824931505544896 zM368.33262740970497,51.40540025554492 L368.33262740970497,51.40540025554492 Q371.12950240970497,51.40540025554492 372.87754928470497,49.867119005544964 Q374.62559615970497,48.328837755544896 374.69551803470483,45.77668931804487 L374.69551803470483,45.77668931804487 L384.1699320972049,45.77668931804487 Q384.13497115970483,49.62239244304487 382.0722758472049,52.82131822250494 Q380.0095805347049,56.020244005544896 376.4260844427448,57.78577134750492 Q372.8425883472049,59.55129869304494 368.50743209720497,59.55129869304494 L368.50743209720497,59.55129869304494 Q360.3964945972049,59.55129869304494 355.7117289722049,54.39456041000494 Q351.02696334720497,49.23782213054494 351.02696334720497,40.14797838054494 L351.02696334720497,40.14797838054494 L351.02696334720497,39.48372056804487 Q351.02696334720497,30.743486193044873 355.6767680347049,25.53430650554492 Q360.326572722205,20.325126818044964 368.4375102222049,20.325126818044964 L368.4375102222049,20.325126818044964 Q375.534580534705,20.325126818044964 379.8172953802449,24.363115097504988 Q384.100010222205,28.401103380544896 384.1699320972049,35.11360338054487 L384.1699320972049,35.11360338054487 L374.69551803470483,35.11360338054487 Q374.62559615970497,32.17688463054492 372.87754928470497,30.34143541000492 Q371.12950240970497,28.50598619304492 368.2627055347049,28.50598619304492 L368.2627055347049,28.50598619304492 Q364.73165084720483,28.50598619304492 362.931162567745,31.075615097504965 Q361.1306742847049,33.645244005544896 361.1306742847049,39.413798693044896 L361.1306742847049,39.413798693044896 L361.1306742847049,40.462626818044896 Q361.1306742847049,46.30110338054487 362.91368209720497,48.853251818044896 Q364.696689909705,51.40540025554492 368.33262740970497,51.40540025554492 zM413.3972758472049,58.85207994304494 L403.678135222205,43.67903306804487 L400.04219772220483,47.31497056804494 L400.04219772220483,58.85207994304494 L389.9384867847049,58.85207994304494 L389.9384867847049,5.152079943044896 L400.04219772220483,5.152079943044896 L400.04219772220483,34.90383775554494 L402.0000102222049,32.386650255544964 L411.68418990970497,21.024345568044964 L423.81563522220483,21.024345568044964 L410.145908659705,36.791728380544896 L425.004307097205,58.85207994304494 L413.3972758472049,58.85207994304494 zM448.6728617847049,48.39875963054487 L448.6728617847049,48.39875963054487 Q448.6728617847049,46.545829943044964 446.837412567745,45.47952134750494 Q445.0019633472049,44.41321275554492 440.94649459720483,43.574150255544964 L440.94649459720483,43.574150255544964 Q427.451572722205,40.74231431804492 427.451572722205,32.10696275554494 L427.451572722205,32.10696275554494 Q427.451572722205,27.072587755544873 431.629404755245,23.69885728500492 Q435.80723678470497,20.325126818044964 442.5546977222049,20.325126818044964 L442.5546977222049,20.325126818044964 Q449.7566508472049,20.325126818044964 454.07432663024485,23.71633775554494 Q458.392002409705,27.10754869304492 458.392002409705,32.52649400554492 L458.392002409705,32.52649400554492 L448.28829147220483,32.52649400554492 Q448.28829147220483,30.35891588054494 446.88985397220483,28.94299791000492 Q445.49141647220483,27.527079943044896 442.51973678470483,27.527079943044896 L442.51973678470483,27.527079943044896 Q439.9675883472049,27.527079943044896 438.5691508472049,28.68079088054492 Q437.1707133472049,29.83450181804494 437.1707133472049,31.617509630544873 L437.1707133472049,31.617509630544873 Q437.1707133472049,33.295634630544896 438.76143600524495,34.32698228500499 Q440.35215865970497,35.358329943044964 444.1279399097049,36.10999009750492 Q447.903721159705,36.86165025554487 450.49083053470497,37.805595568044964 L450.49083053470497,37.805595568044964 Q458.4968852222049,40.74231431804492 458.4968852222049,47.979228380544896 L458.4968852222049,47.979228380544896 Q458.4968852222049,53.15344713054492 454.05684615970483,56.35237291000499 Q449.61680709720497,59.55129869304494 442.5896586597049,59.55129869304494 L442.5896586597049,59.55129869304494 Q437.8349711597049,59.55129869304494 434.14659225524485,57.8556932225049 Q430.45821334720483,56.160087755544964 428.36055709720483,53.20588853500499 Q426.26290084720483,50.251689318044896 426.26290084720483,46.82551744304487 L426.26290084720483,46.82551744304487 L435.842197722205,46.82551744304487 Q435.98204147220497,49.517509630544964 437.8349711597049,50.950908068044896 Q439.687900847205,52.38430650554494 442.79942428470497,52.38430650554494 L442.79942428470497,52.38430650554494 Q445.7011820972049,52.38430650554494 447.187021942745,51.28303697250499 Q448.6728617847049,50.18176744304492 448.6728617847049,48.39875963054487 z" stroke-linecap="round" stroke-width=".3" fill="none" stroke="#ff0000" id="svg_2"/>
</g></g></g></svg>