<svg xmlns="http://www.w3.org/2000/svg" width="217" height="45" viewBox="0 0 217 27">
    <g fill="#fffbe4" fill-rule="nonzero">
        <path d="M28.846 22.154V1H12.817a8.971 8.971 0 0 0-8.961 8.971v12.183H.01V26h32.692v-3.846h-3.856zm-21.154 0V10.269a5.413 5.413 0 0 1 5.414-5.423H25v17.308H7.692zM85.163 4.846c.756 0 1.37.61 1.375 1.366v14.576a1.375 1.375 0 0 1-1.375 1.366H70.596a1.375 1.375 0 0 1-1.365-1.366V6.212a1.375 1.375 0 0 1 1.365-1.366h14.567zm0-3.846H70.596a5.212 5.212 0 0 0-5.211 5.212v14.576A5.212 5.212 0 0 0 70.596 26h14.567a5.221 5.221 0 0 0 5.222-5.212V6.212A5.221 5.221 0 0 0 85.163 1zM121.548 26h-12.327a6.346 6.346 0 0 1-6.336-6.337V7.337A6.346 6.346 0 0 1 109.22 1h12.327a6.346 6.346 0 0 1 6.337 6.337h-3.847a2.49 2.49 0 0 0-2.49-2.49h-12.327a2.49 2.49 0 0 0-2.49 2.49v12.326a2.49 2.49 0 0 0 2.49 2.49h12.327a2.49 2.49 0 0 0 2.49-2.49h3.847A6.346 6.346 0 0 1 121.548 26zM151.51 4.846c.755 0 1.37.61 1.375 1.366v14.576a1.375 1.375 0 0 1-1.375 1.366h-14.568a1.375 1.375 0 0 1-1.365-1.366V6.212a1.375 1.375 0 0 1 1.365-1.366h14.568zm0-3.846h-14.568a5.212 5.212 0 0 0-5.211 5.212v14.576A5.212 5.212 0 0 0 136.942 26h14.568a5.221 5.221 0 0 0 5.22-5.212V6.212A5.221 5.221 0 0 0 151.51 1zM216.346 1h-25v3.846h10.577V26h3.846V4.846h10.577zM183.75 3.885h-6.827V0h-3.846v3.885h-6.827a4.625 4.625 0 0 0-4.712 4.538v9.192a4.625 4.625 0 0 0 4.712 4.539h6.827V27h3.846v-4.846h6.827a4.635 4.635 0 0 0 4.712-4.539V8.423a4.635 4.635 0 0 0-4.712-4.538zm-17.5 14.423a.721.721 0 0 1-.73-.693V8.423a.721.721 0 0 1 .73-.692h6.827v10.577h-6.827zm18.27-.693a.712.712 0 0 1-.722.693h-6.827V7.73h6.827c.39-.006.71.303.721.692v9.192zM54.327 11.577H40.385v-6.73h17.307V1H36.538v25h17.789a7.212 7.212 0 1 0 0-14.423zm0 10.577H40.385v-6.73h13.942a3.365 3.365 0 1 1 0 6.73z"/>
    </g>
</svg>
