<svg width="170" height="38.00000000000001" xmlns="http://www.w3.org/2000/svg" version="1.1">
 <!-- Generator: Sketch 64 (93537) - https://sketch.com -->

 <title>jetbeep-recent-logo_blue</title>
 <desc>Created with Sketch.</desc>
 <g>
  <title>Layer 1</title>
  <g id="svg_1">
   <g id="inguz-icon">
    <path fill="#fefbe4" id="Shape" d="m18.96757,10.56231l7.43536,-7.04239c0.79815,-0.76413 0.79815,-2.02391 0,-2.8087c-0.79814,-0.76413 -2.14239,-0.76413 -2.96154,0l-8.88463,8.40544l-8.90564,8.44674c-0.42008,0.39239 -0.63012,0.90869 -0.63012,1.44565c0,0.5163 0.18904,1.05326 0.63012,1.44565l7.39336,7.00109l-7.43537,7.02174c-0.79814,0.76413 -0.79814,2.02391 0,2.80869c0.42008,0.3924 0.94518,0.57826 1.47027,0.57826c0.5251,0 1.0712,-0.20652 1.47027,-0.57826l8.88464,-8.42608c0,0 0.021,-0.02066 0.042,-0.02066l8.88464,-8.42608c0.42007,-0.39239 0.63011,-0.9087 0.60911,-1.44565c0,-0.51631 -0.18904,-1.05327 -0.60911,-1.44566l-7.39336,-6.95978zm-2.94054,14.08478l-5.9651,-5.63804l5.9651,-5.63804l5.94409,5.63804l-5.94409,5.63804z"/>
    <path fill="#fefbe4" id="Shape_1_" d="m11.07012,8.22862c-0.5461,0 -1.0922,-0.20653 -1.53329,-0.61957l-3.90671,-3.82065c-0.84016,-0.82609 -0.84016,-2.16848 0,-3.01522c0.84015,-0.84674 2.22641,-0.84674 3.06656,-0.02065l3.92772,3.82065c0.86116,0.82609 0.86116,2.18913 0.02101,3.01522c-0.44109,0.43369 -0.98719,0.64022 -1.57529,0.64022z"/>
    <path fill="#fefbe4" id="Shape_2_" d="m24.89066,37.86448c-0.5461,0 -1.0922,-0.20652 -1.51228,-0.59891l-3.96973,-3.86195c-0.86116,-0.80544 -0.86116,-2.16848 -0.02101,-2.97392c0.81916,-0.84674 2.20541,-0.84674 3.02456,-0.02065l3.96973,3.86196c0.86116,0.80543 0.86116,2.16847 0.021,2.97391c-0.39907,0.39239 -0.94517,0.61956 -1.51227,0.61956z"/>
   </g>
   <g stroke="null" id="Group">
    <path fill="#fefbe4" stroke="null" id="Shape" d="m47.11122,13.27567l0,14.84992c0,1.77843 -0.13077,3.20117 -0.37052,4.29047c-0.23975,1.08929 -0.61026,1.93404 -1.08974,2.57872c-0.47949,0.64469 -1.08975,1.0893 -1.80898,1.40053c-0.71924,0.28899 -1.56924,0.55575 -2.52821,0.77806c-0.69745,-0.60023 -1.08975,-1.40053 -1.19873,-2.40089c0.56668,-0.24454 1.02436,-0.5113 1.39488,-0.80029c0.37052,-0.289 0.67564,-0.60023 0.8718,-0.97814c0.21794,-0.37792 0.37052,-0.77806 0.45769,-1.26714c0.08718,-0.46684 0.13077,-1.04483 0.13077,-1.6895l0,-15.16115c0,-0.71138 -0.13077,-1.22268 -0.37052,-1.5339c-0.26154,-0.31123 -0.69743,-0.46684 -1.35128,-0.46684l-0.80641,0c-0.08718,-0.28899 -0.13077,-0.53353 -0.15256,-0.7336c-0.02179,-0.2223 -0.0436,-0.4446 -0.0436,-0.66691c0,-0.20008 0.0218,-0.42238 0.0436,-0.64468c0.02179,-0.2223 0.08717,-0.48907 0.15256,-0.8003c0.47949,-0.04445 0.95897,-0.08891 1.43847,-0.11115c0.47949,-0.02223 0.98077,-0.04446 1.48205,-0.04446l0.52308,0c0.98078,0 1.7654,0.289 2.33206,0.88922c0.61026,0.60021 0.89359,1.44498 0.89359,2.51203zm-5.01283,-6.82474c-0.23975,-0.46684 -0.37052,-1.0226 -0.37052,-1.66728c0,-0.91145 0.13077,-1.48944 0.4141,-1.73398c0.28333,-0.24453 1.00257,-0.37791 2.1795,-0.4446c0.91539,0.06669 1.52564,0.17784 1.87436,0.28899c0.34872,0.11115 0.56666,0.7336 0.63205,1.88959c-0.08718,1.06706 -0.26154,1.66728 -0.52308,1.82289c-0.26154,0.15561 -0.93718,0.26676 -2.00514,0.33346c-1.00256,0 -1.74359,-0.15561 -2.20128,-0.48907z"/>
    <path fill="#fefbe4" stroke="null" id="Shape" d="m67.99076,20.65617l-11.79106,0c0.08718,1.7562 0.47949,3.09003 1.17693,4.04593c0.69743,0.93368 1.89616,1.40052 3.59617,1.40052c0.80641,0 1.65641,-0.11115 2.59359,-0.33345c0.93718,-0.2223 1.87437,-0.60023 2.87693,-1.11153c0.67564,0.578 1.11155,1.42275 1.32949,2.51204c-2.1359,1.42275 -4.64232,2.13412 -7.54104,2.13412c-1.52565,0 -2.81155,-0.24453 -3.85771,-0.75583c-1.04615,-0.5113 -1.89615,-1.20045 -2.55,-2.08967c-0.65385,-0.88921 -1.13334,-1.95628 -1.41667,-3.17894c-0.30513,-1.22268 -0.4359,-2.5565 -0.4359,-3.97924c0,-1.40052 0.19615,-2.68988 0.56666,-3.91256c0.37052,-1.20044 0.91539,-2.24527 1.61283,-3.11226c0.69743,-0.86699 1.54743,-1.5339 2.59359,-2.0452c1.02436,-0.48906 2.1795,-0.7336 3.4654,-0.7336c1.2859,0 2.41923,0.20008 3.4218,0.60023c1.00256,0.40014 1.85257,0.97814 2.55,1.6895c0.69745,0.73361 1.22052,1.57836 1.59103,2.60097c0.37052,1.00036 0.54488,2.08965 0.54488,3.26787c0,0.5113 -0.0218,1.00036 -0.06539,1.51167c-0.08718,0.48907 -0.15256,0.97814 -0.26154,1.48944zm-7.69361,-8.22525c-2.55,0 -3.90128,1.80067 -4.09744,5.37976l8.10772,0l0,-0.48907c0,-1.44497 -0.32693,-2.62318 -0.98077,-3.53463c-0.65385,-0.91145 -1.67821,-1.35605 -3.02951,-1.35605z"/>
    <path fill="#fefbe4" stroke="null" id="Shape" d="m83.09465,9.96334c0.13077,0.42238 0.19616,0.93368 0.19616,1.48944c0,0.55576 -0.06539,1.04483 -0.19616,1.44498l-4.92565,-0.06669l0,11.35973c0,1.11153 0.54487,1.66729 1.63462,1.66729l2.76796,0c0.21795,0.55575 0.32693,1.13375 0.32693,1.71174c0,0.57799 -0.02179,0.9559 -0.08718,1.13375c-1.54744,0.17784 -3.05129,0.26676 -4.48975,0.26676c-2.81155,0 -4.20642,-1.3116 -4.20642,-3.91256l0,-12.2045l-2.96411,0.04446c-0.10898,-0.42238 -0.15256,-0.91145 -0.15256,-1.42275c0,-0.5113 0.04359,-1.02259 0.15256,-1.51167l2.96411,0.06669l0,-3.35679c0,-0.91144 0.15256,-1.55613 0.47948,-1.93404c0.32693,-0.37791 0.89359,-0.57799 1.72181,-0.57799l1.56924,0l0.28333,0.26676l0,5.64652l4.92565,-0.11115z"/>
    <path fill="#fefbe4" stroke="null" id="Shape" d="m87.38825,27.85882l0,-26.80987l0.23975,-0.22231l1.56924,0c0.8282,0 1.41667,0.20008 1.74359,0.60023c0.32693,0.40015 0.50129,1.04483 0.50129,1.93404l0,8.31418c1.61282,-1.28936 3.4436,-1.93404 5.53591,-1.93404c2.1359,0 3.79232,0.86699 4.94745,2.62319c1.15513,1.7562 1.74359,4.17931 1.74359,7.3138c0,1.4672 -0.21794,2.80103 -0.67564,3.95702c-0.45769,1.1782 -1.08974,2.15634 -1.87436,3.00111c-0.80641,0.82253 -1.7436,1.44498 -2.83335,1.88958c-1.08974,0.42238 -2.24488,0.64469 -3.50899,0.64469c-2.5718,-0.04446 -5.03463,-0.46684 -7.38848,-1.3116zm8.41284,-14.89438c-1.61282,0 -3.05129,0.7336 -4.35898,2.17858l0,10.58168c0.98077,0.31123 2.1359,0.46684 3.4436,0.46684c1.32949,0 2.44104,-0.60023 3.29103,-1.80067c0.85001,-1.20044 1.2859,-2.88995 1.2859,-5.06853c0,-2.2008 -0.32692,-3.82363 -0.98077,-4.84623c-0.65385,-1.00036 -1.54744,-1.51167 -2.68078,-1.51167z"/>
    <path fill="#fefbe4" stroke="null" id="Shape" d="m123.24091,20.65617l-11.79105,0c0.08717,1.7562 0.47948,3.09003 1.17692,4.04593c0.69745,0.93368 1.89616,1.40052 3.59617,1.40052c0.80641,0 1.65642,-0.11115 2.5936,-0.33345c0.93718,-0.2223 1.87436,-0.60023 2.87693,-1.11153c0.67564,0.578 1.11154,1.42275 1.32949,2.51204c-2.13591,1.42275 -4.64233,2.13412 -7.54105,2.13412c-1.52564,0 -2.81154,-0.24453 -3.8577,-0.75583c-1.04616,-0.5113 -1.89616,-1.20045 -2.55001,-2.08967c-0.65385,-0.88921 -1.13333,-1.95628 -1.41666,-3.17894c-0.30514,-1.22268 -0.43591,-2.5565 -0.43591,-3.97924c0,-1.40052 0.19616,-2.68988 0.56668,-3.91256c0.37051,-1.20044 0.91539,-2.24527 1.61282,-3.11226c0.69743,-0.86699 1.54744,-1.5339 2.5936,-2.0452c1.02435,-0.48906 2.17949,-0.7336 3.46539,-0.7336c1.2859,0 2.41924,0.20008 3.4218,0.60023c1.00257,0.40014 1.85257,0.97814 2.55001,1.6895c0.69743,0.73361 1.22051,1.57836 1.59103,2.60097c0.37052,1.00036 0.54487,2.08965 0.54487,3.26787c0,0.5113 -0.02179,1.00036 -0.06539,1.51167c-0.04359,0.5113 -0.17436,0.97814 -0.26154,1.48944zm-7.7154,-8.22525c-2.55001,0 -3.9013,1.80067 -4.09746,5.37976l8.10772,0l0,-0.48907c0,-1.44497 -0.32692,-2.62318 -0.98077,-3.53463c-0.65385,-0.91145 -1.65642,-1.35605 -3.02949,-1.35605z"/>
    <path fill="#fefbe4" stroke="null" id="Shape" d="m143.27045,20.65617l-11.79106,0c0.08718,1.7562 0.47949,3.09003 1.17693,4.04593c0.69745,0.93368 1.89616,1.40052 3.59617,1.40052c0.80641,0 1.65641,-0.11115 2.59359,-0.33345c0.93719,-0.2223 1.87437,-0.60023 2.87693,-1.11153c0.67565,0.578 1.11155,1.42275 1.3295,2.51204c-2.13591,1.42275 -4.64233,2.13412 -7.54105,2.13412c-1.52565,0 -2.81154,-0.24453 -3.8577,-0.75583c-1.04616,-0.5113 -1.89616,-1.20045 -2.55001,-2.08967c-0.65385,-0.88921 -1.13334,-1.95628 -1.41667,-3.17894c-0.30513,-1.22268 -0.4359,-2.5565 -0.4359,-3.97924c0,-1.40052 0.19616,-2.68988 0.56666,-3.91256c0.37052,-1.20044 0.91539,-2.24527 1.61283,-3.11226c0.69743,-0.86699 1.54743,-1.5339 2.59359,-2.0452c1.02436,-0.48906 2.1795,-0.7336 3.4654,-0.7336c1.2859,0 2.41923,0.20008 3.4218,0.60023c1.00257,0.40014 1.85257,0.97814 2.55,1.6895c0.69745,0.73361 1.22052,1.57836 1.59104,2.60097c0.37051,1.00036 0.54487,2.08965 0.54487,3.26787c0,0.5113 -0.02179,1.00036 -0.06539,1.51167c-0.04359,0.5113 -0.15256,0.97814 -0.26154,1.48944zm-7.6936,-8.22525c-2.55001,0 -3.9013,1.80067 -4.09746,5.37976l8.10772,0l0,-0.48907c0,-1.44497 -0.32692,-2.62318 -0.98077,-3.53463c-0.65385,-0.91145 -1.65642,-1.35605 -3.02949,-1.35605z"/>
    <path fill="#fefbe4" stroke="null" id="Shape" d="m157.30639,29.14818c-1.50385,0 -3.02949,-0.42238 -4.57694,-1.26713l0,6.5802c0,0.88921 -0.17436,1.5339 -0.50129,1.93405c-0.32692,0.40014 -0.91538,0.60021 -1.74359,0.60021l-1.59103,0l-0.23975,-0.2223l0,-26.69873l0.23975,-0.2223l1.2859,0c1.32949,0 2.15769,0.64468 2.44103,1.93404c1.54744,-1.53389 3.40001,-2.28973 5.57951,-2.28973c1.06795,0 2.02692,0.2223 2.87693,0.68914c0.85001,0.46684 1.56924,1.11153 2.1359,1.97851c0.56668,0.86698 1.02436,1.88958 1.32949,3.11226c0.30514,1.20044 0.4577,2.57873 0.4577,4.09039c0,1.51167 -0.19616,2.88995 -0.61026,4.11263c-0.39231,1.22267 -0.95897,2.24527 -1.65641,3.09002c-0.69745,0.84476 -1.52565,1.48944 -2.46283,1.93405c-0.93718,0.42238 -1.91796,0.64468 -2.96411,0.64468zm-0.15256,-16.33935c-1.74359,0 -3.20385,0.82253 -4.40257,2.4898l0,9.359c0.69743,0.42239 1.37308,0.77806 2.02692,1.0226c0.65385,0.24454 1.2859,0.35569 1.87436,0.35569c1.26411,0 2.26668,-0.57799 3.02949,-1.7562c0.76282,-1.17821 1.13334,-2.84549 1.13334,-5.00185c0,-2.22304 -0.34872,-3.84586 -1.04616,-4.89068c-0.71923,-1.04484 -1.59103,-1.57836 -2.61539,-1.57836z"/>
   </g>
  </g>
 </g>
</svg>