<?xml version="1.0" encoding="UTF-8"?>
<svg width="153px" height="58px" version="1.1" xmlns="http://www.w3.org/2000/svg" xmlns:xlink="http://www.w3.org/1999/xlink">
    <!-- Generator: Sketch 64 (93537) - https://sketch.com -->
    <title>jetbeep-recent-logo_blue</title>
    <desc>Created with Sketch.</desc>
    <g id="Page-1" stroke="none" stroke-width="1" fill="none" fill-rule="evenodd">
        <g id="Jetbeep-Home-4" transform="translate(-643.000000, -40.000000)" fill="#fffbe4" fill-rule="nonzero">
            <g id="jetbeep-recent-logo_blue" transform="translate(643.000000, 40.000000)">
                <g id="inguz-icon">
                    <path d="M13.9675676,10.5532609 L21.4029344,3.51086957 C22.2010811,2.74673913 22.2010811,1.48695652 21.4029344,0.702173913 C20.6047876,-0.0619565217 19.2605405,-0.0619565217 18.44139,0.702173913 L9.55675676,9.1076087 L0.651119691,17.5543478 C0.231042471,17.9467391 0.021003861,18.4630435 0.021003861,19 C0.021003861,19.5163043 0.21003861,20.0532609 0.651119691,20.4456522 L8.04447876,27.4467391 L0.609111969,34.4684783 C-0.189034749,35.2326087 -0.189034749,36.4923913 0.609111969,37.2771739 C1.02918919,37.6695652 1.55428571,37.8554348 2.07938224,37.8554348 C2.60447876,37.8554348 3.15057915,37.648913 3.54965251,37.2771739 L12.4342857,28.851087 C12.4342857,28.851087 12.4552896,28.8304348 12.4762934,28.8304348 L21.3609266,20.4043478 C21.7810039,20.0119565 21.9910425,19.4956522 21.9700386,18.9586957 C21.9700386,18.4423913 21.7810039,17.9054348 21.3609266,17.5130435 L13.9675676,10.5532609 Z M11.027027,24.6380435 L5.0619305,19 L11.027027,13.3619565 L16.9711197,19 L11.027027,24.6380435 Z" id="Shape"></path>
                    <path d="M6.07011583,8.21956522 C5.52401544,8.21956522 4.97791506,8.01304348 4.53683398,7.6 L0.63011583,3.77934783 C-0.21003861,2.95326087 -0.21003861,1.61086957 0.63011583,0.764130435 C1.47027027,-0.0826086957 2.8565251,-0.0826086957 3.69667954,0.743478261 L7.62440154,4.56413043 C8.48555985,5.39021739 8.48555985,6.75326087 7.64540541,7.57934783 C7.20432432,8.01304348 6.65822394,8.21956522 6.07011583,8.21956522 Z" id="Shape_1_"></path>
                    <path d="M19.8906564,37.8554348 C19.344556,37.8554348 18.7984556,37.648913 18.3783784,37.2565217 L14.4086486,33.3945652 C13.5474903,32.5891304 13.5474903,31.226087 14.3876448,30.4206522 C15.2067954,29.573913 16.5930502,29.573913 17.4122008,30.4 L21.3819305,34.2619565 C22.2430888,35.0673913 22.2430888,36.4304348 21.4029344,37.2358696 C21.003861,37.6282609 20.4577606,37.8554348 19.8906564,37.8554348 Z" id="Shape_2_"></path>
                </g>
                <g id="Group" transform="translate(34.459459, 2.072727)">
                    <path d="M6.8150485,11.8592018 L6.8150485,25.9301552 C6.8150485,27.6152993 6.69113853,28.9634146 6.46397024,29.9955654 C6.23680196,31.0277162 5.8857237,31.8281596 5.43138714,32.4390244 C4.97705057,33.0498891 4.39880403,33.4711752 3.71729918,33.7660754 C3.03579433,34.0399113 2.23037951,34.2926829 1.32170638,34.5033259 C0.660853188,33.9345898 0.28912327,33.1762749 0.185864959,32.2283814 C0.722808174,31.9966741 1.15649308,31.7439024 1.50757133,31.4700665 C1.85864959,31.1962306 2.14777286,30.9013304 2.33363782,30.5432373 C2.54015444,30.1851441 2.68471607,29.8059867 2.76732272,29.3425721 C2.84992937,28.9002217 2.8912327,28.3525499 2.8912327,27.7416851 L2.8912327,13.3758315 C2.8912327,12.7017738 2.76732272,12.2172949 2.54015444,11.9223947 C2.29233449,11.6274945 1.87930125,11.4800443 1.25975139,11.4800443 L0.495639891,11.4800443 C0.413033242,11.2062084 0.371729918,10.9745011 0.351078256,10.7849224 C0.330426594,10.5742794 0.309774932,10.3636364 0.309774932,10.1529933 C0.309774932,9.96341463 0.330426594,9.75277162 0.351078256,9.5421286 C0.371729918,9.33148559 0.433684904,9.07871397 0.495639891,8.78381375 C0.949976457,8.74168514 1.40431302,8.69955654 1.85864959,8.67849224 C2.31298616,8.65742794 2.78797439,8.63636364 3.26296261,8.63636364 L3.7586025,8.63636364 C4.6879273,8.63636364 5.43138714,8.91019956 5.96833035,9.4789357 C6.54657689,10.0476718 6.8150485,10.8481153 6.8150485,11.8592018 Z M2.06516621,5.3924612 C1.83799793,4.95011086 1.71408796,4.42350333 1.71408796,3.81263858 C1.71408796,2.94900222 1.83799793,2.40133038 2.10646954,2.16962306 C2.37494114,1.93791574 3.05644599,1.81152993 4.17163575,1.74833703 C5.03900556,1.81152993 5.6172521,1.91685144 5.94767869,2.02217295 C6.27810528,2.12749446 6.4846219,2.7172949 6.54657689,3.81263858 C6.46397024,4.82372506 6.29875695,5.3924612 6.050937,5.53991131 C5.80311705,5.68736142 5.16291553,5.79268293 4.15098409,5.85587583 C3.20100763,5.85587583 2.49885112,5.70842572 2.06516621,5.3924612 Z" id="Shape"></path>
                    <path d="M26.5993408,18.8525499 L15.4267916,18.8525499 C15.5093982,20.5166297 15.8811282,21.7804878 16.5419814,22.6862528 C17.2028345,23.5709534 18.338676,24.0133038 19.9495056,24.0133038 C20.7136171,24.0133038 21.5190319,23.9079823 22.4070534,23.6973392 C23.2950749,23.4866962 24.1830963,23.1286031 25.1330728,22.6441242 C25.7732743,23.191796 26.1863076,23.9922395 26.3928242,25.0243902 C24.3689613,26.3725055 21.9940202,27.0465632 19.2473491,27.0465632 C17.8017327,27.0465632 16.5832847,26.8148559 15.5920049,26.3303769 C14.6007251,25.845898 13.7953103,25.1929047 13.1757604,24.3503326 C12.5562106,23.5077605 12.101874,22.4966741 11.8334024,21.3381375 C11.5442791,20.1796009 11.4203691,18.9157428 11.4203691,17.5676275 C11.4203691,16.2405765 11.6062341,15.018847 11.9573124,13.8603104 C12.3083906,12.7228381 12.8246822,11.732816 13.4855354,10.9113082 C14.1463885,10.0898004 14.9518034,9.4578714 15.9430832,8.97339246 C16.9137113,8.50997783 18.0082494,8.27827051 19.2266974,8.27827051 C20.4451455,8.27827051 21.5190319,8.46784922 22.4690084,8.84700665 C23.4189848,9.22616408 24.2243997,9.77383592 24.8852528,10.4478936 C25.546106,11.1430155 26.0417459,11.943459 26.3928242,12.9124169 C26.7439024,13.8603104 26.9091157,14.8924612 26.9091157,16.0088692 C26.9091157,16.4933481 26.8884641,16.9567627 26.8471607,17.4412417 C26.7645541,17.9046563 26.7025991,18.368071 26.5993408,18.8525499 Z M19.3093041,11.0587583 C16.8930596,11.0587583 15.6126566,12.7649667 15.4267916,16.1563193 L23.1092099,16.1563193 L23.1092099,15.6929047 C23.1092099,14.3237251 22.799435,13.2073171 22.1798851,12.3436807 C21.5603352,11.4800443 20.5897071,11.0587583 19.3093041,11.0587583 Z" id="Shape"></path>
                    <path d="M40.9109426,8.72062084 C41.0348526,9.12084257 41.0968076,9.60532151 41.0968076,10.131929 C41.0968076,10.6585366 41.0348526,11.1219512 40.9109426,11.5011086 L36.243667,11.4379157 L36.243667,22.2017738 C36.243667,23.2549889 36.7599586,23.7815965 37.7925417,23.7815965 L40.4153028,23.7815965 C40.6218194,24.308204 40.7250777,24.8558758 40.7250777,25.4035477 C40.7250777,25.9512195 40.704426,26.3093126 40.642471,26.4778271 C39.176203,26.6463415 37.7512383,26.7305987 36.3882286,26.7305987 C33.7241642,26.7305987 32.4024579,25.4878049 32.4024579,23.0232816 L32.4024579,11.45898 L29.5938318,11.5011086 C29.4905735,11.1008869 29.4492702,10.6374723 29.4492702,10.1529933 C29.4492702,9.66851441 29.4905735,9.18403548 29.5938318,8.72062084 L32.4024579,8.78381375 L32.4024579,5.60310421 C32.4024579,4.73946785 32.5470195,4.1286031 32.8567944,3.77050998 C33.1665694,3.41241685 33.7035126,3.22283814 34.4882757,3.22283814 L35.9751954,3.22283814 L36.243667,3.47560976 L36.243667,8.82594235 L40.9109426,8.72062084 Z" id="Shape"></path>
                    <path d="M44.9793201,25.6773836 L44.9793201,0.27383592 L45.2064884,0.0631929047 L46.693408,0.0631929047 C47.4781712,0.0631929047 48.0357661,0.252771619 48.345541,0.631929047 C48.6553159,1.01108647 48.8205292,1.62195122 48.8205292,2.46452328 L48.8205292,10.3425721 C50.3487522,9.12084257 52.0834919,8.50997783 54.0660514,8.50997783 C56.0899143,8.50997783 57.6594406,9.33148559 58.7539787,10.9955654 C59.8485168,12.6596452 60.4061117,14.9556541 60.4061117,17.9257206 C60.4061117,19.3159645 60.1995951,20.5798226 59.7659102,21.6751663 C59.3322253,22.7915743 58.7333271,23.7184035 57.9898672,24.518847 C57.2257557,25.2982262 56.3377342,25.8880266 55.3051511,26.3093126 C54.272568,26.7095344 53.1780299,26.9201774 51.9802335,26.9201774 C49.5433374,26.8780488 47.2096996,26.4778271 44.9793201,25.6773836 Z M52.9508617,11.5643016 C51.4226387,11.5643016 50.059629,12.2594235 48.8205292,13.6286031 L48.8205292,23.6552106 C49.749854,23.9501109 50.8443921,24.097561 52.0834919,24.097561 C53.3432432,24.097561 54.396478,23.5288248 55.2018928,22.3913525 C56.0073077,21.2538803 56.4203409,19.6529933 56.4203409,17.5886918 C56.4203409,15.5033259 56.110566,13.9656319 55.4910161,12.9966741 C54.8714662,12.0487805 54.0247481,11.5643016 52.9508617,11.5643016 Z" id="Shape"></path>
                    <path d="M78.9513043,18.8525499 L67.7787551,18.8525499 C67.8613617,20.5166297 68.2330916,21.7804878 68.8939448,22.6862528 C69.554798,23.5709534 70.6906394,24.0133038 72.3014691,24.0133038 C73.0655806,24.0133038 73.8709954,23.9079823 74.7590169,23.6973392 C75.6470383,23.4866962 76.5350598,23.1286031 77.4850363,22.6441242 C78.1252378,23.191796 78.538271,23.9922395 78.7447876,25.0243902 C76.7209248,26.3725055 74.3459836,27.0465632 71.5993126,27.0465632 C70.1536962,27.0465632 68.9352481,26.8148559 67.9439684,26.3303769 C66.9526886,25.845898 66.1472738,25.1929047 65.5277239,24.3503326 C64.908174,23.5077605 64.4538375,22.4966741 64.1853659,21.3381375 C63.8962426,20.1796009 63.7723326,18.9157428 63.7723326,17.5676275 C63.7723326,16.2405765 63.9581976,15.018847 64.3092758,13.8603104 C64.6603541,12.7228381 65.1766456,11.732816 65.8374988,10.9113082 C66.498352,10.0898004 67.3037668,9.4578714 68.2950466,8.97339246 C69.2656747,8.50997783 70.3602128,8.27827051 71.5786609,8.27827051 C72.797109,8.27827051 73.8709954,8.46784922 74.8209718,8.84700665 C75.7709483,9.22616408 76.5763631,9.77383592 77.2372163,10.4478936 C77.8980695,11.1430155 78.3937094,11.943459 78.7447876,12.9124169 C79.0958659,13.8603104 79.2610792,14.8924612 79.2610792,16.0088692 C79.2610792,16.4933481 79.2404275,16.9567627 79.1991242,17.4412417 C79.1578209,17.9257206 79.0339109,18.368071 78.9513043,18.8525499 Z M71.6406159,11.0587583 C69.2243714,11.0587583 67.9439684,12.7649667 67.7581034,16.1563193 L75.4405217,16.1563193 L75.4405217,15.6929047 C75.4405217,14.3237251 75.1307468,13.2073171 74.5111969,12.3436807 C73.891647,11.4800443 72.9416706,11.0587583 71.6406159,11.0587583 Z" id="Shape"></path>
                    <path d="M97.9301817,18.8525499 L86.7576325,18.8525499 C86.8402392,20.5166297 87.2119691,21.7804878 87.8728223,22.6862528 C88.5336755,23.5709534 89.6695169,24.0133038 91.2803465,24.0133038 C92.044458,24.0133038 92.8498729,23.9079823 93.7378943,23.6973392 C94.6259158,23.4866962 95.5139373,23.1286031 96.4639137,22.6441242 C97.1041153,23.191796 97.5171485,23.9922395 97.7236651,25.0243902 C95.6998022,26.3725055 93.3248611,27.0465632 90.57819,27.0465632 C89.1325737,27.0465632 87.9141256,26.8148559 86.9228458,26.3303769 C85.9315661,25.845898 85.1261512,25.1929047 84.5066014,24.3503326 C83.8870515,23.5077605 83.4327149,22.4966741 83.1642433,21.3381375 C82.8751201,20.1796009 82.7512101,18.9157428 82.7512101,17.5676275 C82.7512101,16.2405765 82.9370751,15.018847 83.2881533,13.8603104 C83.6392316,12.7228381 84.1555231,11.732816 84.8163763,10.9113082 C85.4772295,10.0898004 86.2826443,9.4578714 87.2739241,8.97339246 C88.2445522,8.50997783 89.3390903,8.27827051 90.5575384,8.27827051 C91.7759864,8.27827051 92.8498729,8.46784922 93.7998493,8.84700665 C94.7498258,9.22616408 95.5552406,9.77383592 96.2160938,10.4478936 C96.876947,11.1430155 97.3725869,11.943459 97.7236651,12.9124169 C98.0747434,13.8603104 98.2399567,14.8924612 98.2399567,16.0088692 C98.2399567,16.4933481 98.219305,16.9567627 98.1780017,17.4412417 C98.1366984,17.9257206 98.0334401,18.368071 97.9301817,18.8525499 Z M90.640145,11.0587583 C88.2239006,11.0587583 86.9434975,12.7649667 86.7576325,16.1563193 L94.4400509,16.1563193 L94.4400509,15.6929047 C94.4400509,14.3237251 94.1302759,13.2073171 93.5107261,12.3436807 C92.8911762,11.4800443 91.9411997,11.0587583 90.640145,11.0587583 Z" id="Shape"></path>
                    <path d="M111.229852,26.8991131 C109.804887,26.8991131 108.359271,26.4988914 106.893003,25.6984479 L106.893003,31.9334812 C106.893003,32.7760532 106.72779,33.386918 106.418015,33.7660754 C106.10824,34.1452328 105.550645,34.3348115 104.765882,34.3348115 L103.258311,34.3348115 L103.031142,34.1241685 L103.031142,8.82594235 L103.258311,8.61529933 L104.476759,8.61529933 C105.73651,8.61529933 106.521273,9.22616408 106.789745,10.4478936 C108.256013,8.99445676 110.011404,8.27827051 112.07657,8.27827051 C113.088502,8.27827051 113.997175,8.48891353 114.80259,8.93126386 C115.608005,9.37361419 116.289509,9.98447894 116.826453,10.8059867 C117.363396,11.6274945 117.797081,12.5964523 118.086204,13.7549889 C118.375327,14.8924612 118.519889,16.1984479 118.519889,17.6308204 C118.519889,19.0631929 118.334024,20.3691796 117.941642,21.5277162 C117.569912,22.6862528 117.032969,23.6552106 116.372116,24.4556541 C115.711263,25.2560976 114.9265,25.8669623 114.038478,26.2882483 C113.150457,26.6884701 112.221132,26.8991131 111.229852,26.8991131 Z M111.085291,11.4168514 C109.433158,11.4168514 108.049496,12.1962306 106.913655,13.7760532 L106.913655,22.6441242 C107.574508,23.0443459 108.214709,23.3813747 108.834259,23.613082 C109.453809,23.8447894 110.052707,23.9501109 110.610302,23.9501109 C111.808099,23.9501109 112.758075,23.402439 113.480883,22.286031 C114.203691,21.1696231 114.55477,19.5898004 114.55477,17.5465632 C114.55477,15.440133 114.224343,13.902439 113.56349,12.9124169 C112.881985,11.9223947 112.055919,11.4168514 111.085291,11.4168514 Z" id="Shape"></path>
                </g>
            </g>
        </g>
    </g>
</svg>